<svg width="16" height="16" viewBox="0 0 16 16" fill="none" xmlns="http://www.w3.org/2000/svg">
<path d="M15.9575 6.12749C15.9064 5.96895 15.8097 5.82897 15.6795 5.725C15.5493 5.62103 15.3915 5.55768 15.2255 5.54282L10.6075 5.12349L8.78153 0.84949C8.71592 0.696431 8.60683 0.565997 8.46778 0.47436C8.32873 0.382723 8.16584 0.333913 7.99931 0.333984C7.83278 0.334055 7.66994 0.383003 7.53097 0.474759C7.392 0.566515 7.28301 0.697042 7.21753 0.850157L5.39153 5.12349L0.772866 5.54282C0.606785 5.55757 0.448708 5.62084 0.318314 5.72475C0.187919 5.82866 0.0909644 5.96863 0.039519 6.12723C-0.0119264 6.28583 -0.0155907 6.45605 0.0289822 6.61672C0.0735551 6.77739 0.164397 6.9214 0.290199 7.03082L3.78087 10.0922L2.75153 14.6262C2.71452 14.7885 2.72599 14.9581 2.78451 15.1139C2.84302 15.2698 2.94602 15.405 3.0807 15.5028C3.21539 15.6007 3.37584 15.6568 3.54215 15.6643C3.70845 15.6717 3.87329 15.6302 4.0162 15.5448L7.99953 13.1642L11.9815 15.5448C12.1245 15.6301 12.2893 15.6715 12.4556 15.664C12.6219 15.6565 12.7823 15.6004 12.917 15.5026C13.0517 15.4048 13.1548 15.2696 13.2134 15.1138C13.272 14.9581 13.2837 14.7885 13.2469 14.6262L12.2175 10.0922L15.7082 7.03149C15.9649 6.80682 16.0629 6.45216 15.9575 6.12749Z" fill="#FFC107"/>
</svg>
